<svg enable-background="new 0 0 300 300" version="1.1" viewBox="0 0 300 300" xml:space="preserve" xmlns="http://www.w3.org/2000/svg"><path fill="white" d="m150 0c-82.839 0-150 67.161-150 150s67.156 150 150 150 150-67.163 150-150-67.164-150-150-150zm75.367 123.3l-36.686 36.686c-3.979 3.979-9.269 6.17-14.895 6.17-5.625 0-10.916-2.192-14.895-6.168l-1.437-1.437-3.906 3.906 1.434 1.434c8.214 8.214 8.214 21.579 0 29.793l-36.681 36.686c-3.979 3.979-9.269 6.17-14.898 6.17-5.628 0-10.919-2.192-14.9-6.173l-13.865-13.869c-8.214-8.209-8.214-21.573-3e-3 -29.79l36.689-36.684c3.979-3.979 9.269-6.17 14.898-6.17s10.916 2.192 14.898 6.17l1.432 1.432 3.906-3.906-1.432-1.432c-8.214-8.211-8.214-21.576-5e-3 -29.79l36.689-36.686c3.981-3.981 9.272-6.173 14.898-6.173s10.916 2.192 14.898 6.17l13.868 13.873c8.207 8.209 8.207 21.576-7e-3 29.788z"/><path fill="white" d="m142.54 173.46l-7.093 7.093-11.002-10.999 7.093-7.093-1.432-1.432c-1.04-1.037-2.422-1.611-3.89-1.611-1.471 0-2.853 0.573-3.893 1.611l-36.686 36.681c-2.145 2.147-2.145 5.638 0 7.783l13.87 13.873c2.083 2.083 5.708 2.08 7.786 3e-3l36.681-36.686c2.148-2.147 2.148-5.641 0-7.789l-1.434-1.434z"/><path fill="white" d="m200.49 90.643c-1.04-1.04-2.425-1.613-3.896-1.613s-2.856 0.573-3.896 1.616l-36.686 36.684c-2.142 2.147-2.142 5.638 3e-3 7.786l1.434 1.432 10.88-10.883 11.002 11.002-10.88 10.883 1.434 1.434c2.083 2.077 5.703 2.08 7.786-3e-3l36.684-36.681c2.145-2.147 2.145-5.638 0-7.786l-13.865-13.871z"/></svg>
